<mxfile host="Electron" modified="2024-06-08T13:59:40.905Z" agent="Mozilla/5.0 (Windows NT 10.0; Win64; x64) AppleWebKit/537.36 (KHTML, like Gecko) draw.io/24.4.0 Chrome/120.0.6099.109 Electron/28.1.0 Safari/537.36" etag="UFhzrlyQ_WpI360KJEa9" version="24.4.0" type="device">
  <diagram name="Página-1" id="nWbRNoEA8S1haVclRpku">
    <mxGraphModel dx="2261" dy="854" grid="1" gridSize="10" guides="1" tooltips="1" connect="1" arrows="1" fold="1" page="1" pageScale="1" pageWidth="827" pageHeight="1169" math="0" shadow="0">
      <root>
        <mxCell id="0" />
        <mxCell id="1" parent="0" />
        <mxCell id="K07xlU3QF2Z3pLZcyAiM-84" value="" style="rounded=0;whiteSpace=wrap;html=1;strokeColor=#CCCCCC;" parent="1" vertex="1">
          <mxGeometry x="-640" y="140" width="20" height="500" as="geometry" />
        </mxCell>
        <mxCell id="K07xlU3QF2Z3pLZcyAiM-85" value="" style="rounded=0;whiteSpace=wrap;html=1;strokeColor=#CCCCCC;" parent="1" vertex="1">
          <mxGeometry x="-650" y="140" width="10" height="500" as="geometry" />
        </mxCell>
        <mxCell id="K07xlU3QF2Z3pLZcyAiM-86" value="" style="rounded=0;whiteSpace=wrap;html=1;strokeColor=#CCCCCC;" parent="1" vertex="1">
          <mxGeometry x="-620" y="140" width="20" height="500" as="geometry" />
        </mxCell>
        <mxCell id="K07xlU3QF2Z3pLZcyAiM-95" value="" style="rounded=0;whiteSpace=wrap;html=1;strokeColor=#CCCCCC;" parent="1" vertex="1">
          <mxGeometry x="-600" y="140" width="20" height="500" as="geometry" />
        </mxCell>
        <mxCell id="K07xlU3QF2Z3pLZcyAiM-96" value="" style="rounded=0;whiteSpace=wrap;html=1;strokeColor=#CCCCCC;" parent="1" vertex="1">
          <mxGeometry x="-580" y="140" width="20" height="500" as="geometry" />
        </mxCell>
        <mxCell id="K07xlU3QF2Z3pLZcyAiM-97" value="" style="rounded=0;whiteSpace=wrap;html=1;strokeColor=#CCCCCC;" parent="1" vertex="1">
          <mxGeometry x="-560" y="140" width="20" height="500" as="geometry" />
        </mxCell>
        <mxCell id="K07xlU3QF2Z3pLZcyAiM-98" value="" style="rounded=0;whiteSpace=wrap;html=1;strokeColor=#CCCCCC;" parent="1" vertex="1">
          <mxGeometry x="-540" y="140" width="20" height="500" as="geometry" />
        </mxCell>
        <mxCell id="K07xlU3QF2Z3pLZcyAiM-99" value="" style="rounded=0;whiteSpace=wrap;html=1;strokeColor=#CCCCCC;" parent="1" vertex="1">
          <mxGeometry x="-520" y="140" width="20" height="500" as="geometry" />
        </mxCell>
        <mxCell id="K07xlU3QF2Z3pLZcyAiM-100" value="" style="rounded=0;whiteSpace=wrap;html=1;strokeColor=#CCCCCC;" parent="1" vertex="1">
          <mxGeometry x="-500" y="140" width="20" height="500" as="geometry" />
        </mxCell>
        <mxCell id="K07xlU3QF2Z3pLZcyAiM-101" value="" style="rounded=0;whiteSpace=wrap;html=1;strokeColor=#CCCCCC;" parent="1" vertex="1">
          <mxGeometry x="-480" y="140" width="20" height="500" as="geometry" />
        </mxCell>
        <mxCell id="K07xlU3QF2Z3pLZcyAiM-102" value="" style="rounded=0;whiteSpace=wrap;html=1;strokeColor=#CCCCCC;" parent="1" vertex="1">
          <mxGeometry x="-460" y="140" width="20" height="500" as="geometry" />
        </mxCell>
        <mxCell id="K07xlU3QF2Z3pLZcyAiM-103" value="" style="rounded=0;whiteSpace=wrap;html=1;strokeColor=#CCCCCC;" parent="1" vertex="1">
          <mxGeometry x="-440" y="140" width="20" height="500" as="geometry" />
        </mxCell>
        <mxCell id="K07xlU3QF2Z3pLZcyAiM-104" value="" style="rounded=0;whiteSpace=wrap;html=1;strokeColor=#CCCCCC;" parent="1" vertex="1">
          <mxGeometry x="-420" y="140" width="20" height="500" as="geometry" />
        </mxCell>
        <mxCell id="K07xlU3QF2Z3pLZcyAiM-105" value="" style="rounded=0;whiteSpace=wrap;html=1;strokeColor=#CCCCCC;" parent="1" vertex="1">
          <mxGeometry x="-400" y="140" width="20" height="500" as="geometry" />
        </mxCell>
        <mxCell id="K07xlU3QF2Z3pLZcyAiM-106" value="" style="rounded=0;whiteSpace=wrap;html=1;strokeColor=#CCCCCC;" parent="1" vertex="1">
          <mxGeometry x="-380" y="140" width="20" height="500" as="geometry" />
        </mxCell>
        <mxCell id="K07xlU3QF2Z3pLZcyAiM-107" value="" style="rounded=0;whiteSpace=wrap;html=1;strokeColor=#CCCCCC;" parent="1" vertex="1">
          <mxGeometry x="-360" y="140" width="20" height="500" as="geometry" />
        </mxCell>
        <mxCell id="K07xlU3QF2Z3pLZcyAiM-108" value="" style="rounded=0;whiteSpace=wrap;html=1;strokeColor=#CCCCCC;" parent="1" vertex="1">
          <mxGeometry x="-340" y="140" width="20" height="500" as="geometry" />
        </mxCell>
        <mxCell id="K07xlU3QF2Z3pLZcyAiM-109" value="" style="rounded=0;whiteSpace=wrap;html=1;strokeColor=#CCCCCC;" parent="1" vertex="1">
          <mxGeometry x="-320" y="140" width="20" height="500" as="geometry" />
        </mxCell>
        <mxCell id="K07xlU3QF2Z3pLZcyAiM-110" value="" style="rounded=0;whiteSpace=wrap;html=1;strokeColor=#CCCCCC;" parent="1" vertex="1">
          <mxGeometry x="-300" y="140" width="20" height="500" as="geometry" />
        </mxCell>
        <mxCell id="K07xlU3QF2Z3pLZcyAiM-111" value="" style="rounded=0;whiteSpace=wrap;html=1;strokeColor=#CCCCCC;" parent="1" vertex="1">
          <mxGeometry x="-280" y="140" width="20" height="500" as="geometry" />
        </mxCell>
        <mxCell id="K07xlU3QF2Z3pLZcyAiM-112" value="" style="rounded=0;whiteSpace=wrap;html=1;strokeColor=#CCCCCC;" parent="1" vertex="1">
          <mxGeometry x="-260" y="140" width="20" height="500" as="geometry" />
        </mxCell>
        <mxCell id="K07xlU3QF2Z3pLZcyAiM-113" value="" style="rounded=0;whiteSpace=wrap;html=1;strokeColor=#CCCCCC;" parent="1" vertex="1">
          <mxGeometry x="-240" y="140" width="20" height="500" as="geometry" />
        </mxCell>
        <mxCell id="K07xlU3QF2Z3pLZcyAiM-114" value="" style="rounded=0;whiteSpace=wrap;html=1;strokeColor=#CCCCCC;" parent="1" vertex="1">
          <mxGeometry x="-220" y="140" width="20" height="500" as="geometry" />
        </mxCell>
        <mxCell id="K07xlU3QF2Z3pLZcyAiM-115" value="" style="rounded=0;whiteSpace=wrap;html=1;strokeColor=#CCCCCC;" parent="1" vertex="1">
          <mxGeometry x="-200" y="140" width="20" height="500" as="geometry" />
        </mxCell>
        <mxCell id="K07xlU3QF2Z3pLZcyAiM-116" value="" style="rounded=0;whiteSpace=wrap;html=1;strokeColor=#CCCCCC;" parent="1" vertex="1">
          <mxGeometry x="-180" y="140" width="20" height="500" as="geometry" />
        </mxCell>
        <mxCell id="K07xlU3QF2Z3pLZcyAiM-117" value="" style="rounded=0;whiteSpace=wrap;html=1;strokeColor=#CCCCCC;" parent="1" vertex="1">
          <mxGeometry x="-160" y="140" width="20" height="500" as="geometry" />
        </mxCell>
        <mxCell id="K07xlU3QF2Z3pLZcyAiM-118" value="" style="rounded=0;whiteSpace=wrap;html=1;strokeColor=#CCCCCC;" parent="1" vertex="1">
          <mxGeometry x="-140" y="140" width="20" height="500" as="geometry" />
        </mxCell>
        <mxCell id="K07xlU3QF2Z3pLZcyAiM-119" value="" style="rounded=0;whiteSpace=wrap;html=1;strokeColor=#CCCCCC;" parent="1" vertex="1">
          <mxGeometry x="-120" y="140" width="20" height="500" as="geometry" />
        </mxCell>
        <mxCell id="K07xlU3QF2Z3pLZcyAiM-120" value="" style="rounded=0;whiteSpace=wrap;html=1;strokeColor=#CCCCCC;" parent="1" vertex="1">
          <mxGeometry x="-100" y="140" width="20" height="500" as="geometry" />
        </mxCell>
        <mxCell id="K07xlU3QF2Z3pLZcyAiM-121" value="" style="rounded=0;whiteSpace=wrap;html=1;strokeColor=#CCCCCC;" parent="1" vertex="1">
          <mxGeometry x="-80" y="140" width="20" height="500" as="geometry" />
        </mxCell>
        <mxCell id="K07xlU3QF2Z3pLZcyAiM-122" value="" style="rounded=0;whiteSpace=wrap;html=1;strokeColor=#CCCCCC;" parent="1" vertex="1">
          <mxGeometry x="-60" y="140" width="20" height="500" as="geometry" />
        </mxCell>
        <mxCell id="K07xlU3QF2Z3pLZcyAiM-123" value="" style="rounded=0;whiteSpace=wrap;html=1;strokeColor=#CCCCCC;" parent="1" vertex="1">
          <mxGeometry x="-40" y="140" width="20" height="500" as="geometry" />
        </mxCell>
        <mxCell id="K07xlU3QF2Z3pLZcyAiM-124" value="" style="rounded=0;whiteSpace=wrap;html=1;strokeColor=#CCCCCC;" parent="1" vertex="1">
          <mxGeometry x="-20" y="140" width="20" height="500" as="geometry" />
        </mxCell>
        <mxCell id="K07xlU3QF2Z3pLZcyAiM-56" value="EJECUCIÓN DEL PROYECTO" style="rounded=0;whiteSpace=wrap;html=1;fillColor=#f8cecc;strokeColor=#b85450;" parent="1" vertex="1">
          <mxGeometry x="-820" y="140" width="170" height="20" as="geometry" />
        </mxCell>
        <mxCell id="K07xlU3QF2Z3pLZcyAiM-59" value="DISEÑO" style="rounded=0;whiteSpace=wrap;html=1;fillColor=#ffe6cc;strokeColor=#d79b00;" parent="1" vertex="1">
          <mxGeometry x="-820" y="160" width="170" height="20" as="geometry" />
        </mxCell>
        <mxCell id="K07xlU3QF2Z3pLZcyAiM-60" value="DESARROLLO" style="rounded=0;whiteSpace=wrap;html=1;fillColor=#ffe6cc;strokeColor=#d79b00;" parent="1" vertex="1">
          <mxGeometry x="-820" y="240" width="170" height="20" as="geometry" />
        </mxCell>
        <mxCell id="K07xlU3QF2Z3pLZcyAiM-61" value="MEMORIA" style="rounded=0;whiteSpace=wrap;html=1;fillColor=#ffe6cc;strokeColor=#d79b00;" parent="1" vertex="1">
          <mxGeometry x="-820" y="380" width="170" height="20" as="geometry" />
        </mxCell>
        <mxCell id="K07xlU3QF2Z3pLZcyAiM-62" value="T-DIS-01" style="rounded=0;whiteSpace=wrap;html=1;fillColor=#fff2cc;strokeColor=#d6b656;" parent="1" vertex="1">
          <mxGeometry x="-820" y="180" width="170" height="20" as="geometry" />
        </mxCell>
        <mxCell id="K07xlU3QF2Z3pLZcyAiM-63" value="T-DIS-02" style="rounded=0;whiteSpace=wrap;html=1;fillColor=#fff2cc;strokeColor=#d6b656;" parent="1" vertex="1">
          <mxGeometry x="-820" y="200" width="170" height="20" as="geometry" />
        </mxCell>
        <mxCell id="K07xlU3QF2Z3pLZcyAiM-64" value="T-DIS-03" style="rounded=0;whiteSpace=wrap;html=1;fillColor=#fff2cc;strokeColor=#d6b656;" parent="1" vertex="1">
          <mxGeometry x="-820" y="220" width="170" height="20" as="geometry" />
        </mxCell>
        <mxCell id="K07xlU3QF2Z3pLZcyAiM-65" value="T-DEV-01" style="rounded=0;whiteSpace=wrap;html=1;fillColor=#fff2cc;strokeColor=#d6b656;" parent="1" vertex="1">
          <mxGeometry x="-820" y="260" width="170" height="20" as="geometry" />
        </mxCell>
        <mxCell id="K07xlU3QF2Z3pLZcyAiM-66" value="T-DEV-02" style="rounded=0;whiteSpace=wrap;html=1;fillColor=#fff2cc;strokeColor=#d6b656;" parent="1" vertex="1">
          <mxGeometry x="-820" y="280" width="170" height="20" as="geometry" />
        </mxCell>
        <mxCell id="K07xlU3QF2Z3pLZcyAiM-67" value="T-DEV-03" style="rounded=0;whiteSpace=wrap;html=1;fillColor=#fff2cc;strokeColor=#d6b656;" parent="1" vertex="1">
          <mxGeometry x="-820" y="300" width="170" height="20" as="geometry" />
        </mxCell>
        <mxCell id="K07xlU3QF2Z3pLZcyAiM-68" value="T-DEV-04" style="rounded=0;whiteSpace=wrap;html=1;fillColor=#fff2cc;strokeColor=#d6b656;" parent="1" vertex="1">
          <mxGeometry x="-820" y="320" width="170" height="20" as="geometry" />
        </mxCell>
        <mxCell id="K07xlU3QF2Z3pLZcyAiM-69" value="T-DEV-05" style="rounded=0;whiteSpace=wrap;html=1;fillColor=#fff2cc;strokeColor=#d6b656;" parent="1" vertex="1">
          <mxGeometry x="-820" y="340" width="170" height="20" as="geometry" />
        </mxCell>
        <mxCell id="K07xlU3QF2Z3pLZcyAiM-70" value="T-DEV-06" style="rounded=0;whiteSpace=wrap;html=1;fillColor=#fff2cc;strokeColor=#d6b656;" parent="1" vertex="1">
          <mxGeometry x="-820" y="360" width="170" height="20" as="geometry" />
        </mxCell>
        <mxCell id="K07xlU3QF2Z3pLZcyAiM-72" value="T-MEM-01" style="rounded=0;whiteSpace=wrap;html=1;fillColor=#fff2cc;strokeColor=#d6b656;" parent="1" vertex="1">
          <mxGeometry x="-820" y="400" width="170" height="20" as="geometry" />
        </mxCell>
        <mxCell id="K07xlU3QF2Z3pLZcyAiM-73" value="T-MEM-02" style="rounded=0;whiteSpace=wrap;html=1;fillColor=#fff2cc;strokeColor=#d6b656;" parent="1" vertex="1">
          <mxGeometry x="-820" y="420" width="170" height="20" as="geometry" />
        </mxCell>
        <mxCell id="K07xlU3QF2Z3pLZcyAiM-74" value="T-MEM-03" style="rounded=0;whiteSpace=wrap;html=1;fillColor=#fff2cc;strokeColor=#d6b656;" parent="1" vertex="1">
          <mxGeometry x="-820" y="440" width="170" height="20" as="geometry" />
        </mxCell>
        <mxCell id="K07xlU3QF2Z3pLZcyAiM-75" value="T-MEM-04" style="rounded=0;whiteSpace=wrap;html=1;fillColor=#fff2cc;strokeColor=#d6b656;" parent="1" vertex="1">
          <mxGeometry x="-820" y="460" width="170" height="20" as="geometry" />
        </mxCell>
        <mxCell id="K07xlU3QF2Z3pLZcyAiM-76" value="T-MEM-05" style="rounded=0;whiteSpace=wrap;html=1;fillColor=#fff2cc;strokeColor=#d6b656;" parent="1" vertex="1">
          <mxGeometry x="-820" y="480" width="170" height="20" as="geometry" />
        </mxCell>
        <mxCell id="K07xlU3QF2Z3pLZcyAiM-77" value="T-MEM-06" style="rounded=0;whiteSpace=wrap;html=1;fillColor=#fff2cc;strokeColor=#d6b656;" parent="1" vertex="1">
          <mxGeometry x="-820" y="500" width="170" height="20" as="geometry" />
        </mxCell>
        <mxCell id="K07xlU3QF2Z3pLZcyAiM-78" value="T-MEM-07" style="rounded=0;whiteSpace=wrap;html=1;fillColor=#fff2cc;strokeColor=#d6b656;" parent="1" vertex="1">
          <mxGeometry x="-820" y="520" width="170" height="20" as="geometry" />
        </mxCell>
        <mxCell id="K07xlU3QF2Z3pLZcyAiM-79" value="T-MEM-08" style="rounded=0;whiteSpace=wrap;html=1;fillColor=#fff2cc;strokeColor=#d6b656;" parent="1" vertex="1">
          <mxGeometry x="-820" y="540" width="170" height="20" as="geometry" />
        </mxCell>
        <mxCell id="K07xlU3QF2Z3pLZcyAiM-80" value="T-MEM-09" style="rounded=0;whiteSpace=wrap;html=1;fillColor=#fff2cc;strokeColor=#d6b656;" parent="1" vertex="1">
          <mxGeometry x="-820" y="560" width="170" height="20" as="geometry" />
        </mxCell>
        <mxCell id="K07xlU3QF2Z3pLZcyAiM-81" value="T-MEM-10" style="rounded=0;whiteSpace=wrap;html=1;fillColor=#fff2cc;strokeColor=#d6b656;" parent="1" vertex="1">
          <mxGeometry x="-820" y="580" width="170" height="20" as="geometry" />
        </mxCell>
        <mxCell id="K07xlU3QF2Z3pLZcyAiM-82" value="T-MEM-11" style="rounded=0;whiteSpace=wrap;html=1;fillColor=#fff2cc;strokeColor=#d6b656;" parent="1" vertex="1">
          <mxGeometry x="-820" y="600" width="170" height="20" as="geometry" />
        </mxCell>
        <mxCell id="K07xlU3QF2Z3pLZcyAiM-83" value="T-MEM-12" style="rounded=0;whiteSpace=wrap;html=1;fillColor=#fff2cc;strokeColor=#d6b656;" parent="1" vertex="1">
          <mxGeometry x="-820" y="620" width="170" height="20" as="geometry" />
        </mxCell>
        <mxCell id="K07xlU3QF2Z3pLZcyAiM-2" value="DICIEMBRE" style="rounded=0;whiteSpace=wrap;html=1;fillColor=#e1d5e7;strokeColor=#9673a6;fontSize=11;" parent="1" vertex="1">
          <mxGeometry x="-570" y="100" width="90" height="20" as="geometry" />
        </mxCell>
        <mxCell id="K07xlU3QF2Z3pLZcyAiM-3" value="ENERO" style="rounded=0;whiteSpace=wrap;html=1;fillColor=#e1d5e7;strokeColor=#9673a6;fontSize=11;" parent="1" vertex="1">
          <mxGeometry x="-480" y="100" width="90" height="20" as="geometry" />
        </mxCell>
        <mxCell id="K07xlU3QF2Z3pLZcyAiM-4" value="FEBRERO" style="rounded=0;whiteSpace=wrap;html=1;fillColor=#e1d5e7;strokeColor=#9673a6;fontSize=11;" parent="1" vertex="1">
          <mxGeometry x="-390" y="100" width="80" height="20" as="geometry" />
        </mxCell>
        <mxCell id="K07xlU3QF2Z3pLZcyAiM-5" value="MARZO" style="rounded=0;whiteSpace=wrap;html=1;fillColor=#e1d5e7;strokeColor=#9673a6;fontSize=11;" parent="1" vertex="1">
          <mxGeometry x="-310" y="100" width="90" height="20" as="geometry" />
        </mxCell>
        <mxCell id="K07xlU3QF2Z3pLZcyAiM-14" value="ABRIL" style="rounded=0;whiteSpace=wrap;html=1;fillColor=#e1d5e7;strokeColor=#9673a6;fontSize=11;" parent="1" vertex="1">
          <mxGeometry x="-220" y="100" width="90" height="20" as="geometry" />
        </mxCell>
        <mxCell id="K07xlU3QF2Z3pLZcyAiM-15" value="MAYO" style="rounded=0;whiteSpace=wrap;html=1;fillColor=#e1d5e7;strokeColor=#9673a6;fontSize=11;" parent="1" vertex="1">
          <mxGeometry x="-130" y="100" width="80" height="20" as="geometry" />
        </mxCell>
        <mxCell id="K07xlU3QF2Z3pLZcyAiM-16" value="JUNIO" style="rounded=0;whiteSpace=wrap;html=1;fillColor=#e1d5e7;strokeColor=#9673a6;fontSize=11;" parent="1" vertex="1">
          <mxGeometry x="-50" y="100" width="50" height="20" as="geometry" />
        </mxCell>
        <mxCell id="K07xlU3QF2Z3pLZcyAiM-17" value="48" style="rounded=0;whiteSpace=wrap;html=1;align=center;fillColor=#e1d5e7;strokeColor=#9673a6;" parent="1" vertex="1">
          <mxGeometry x="-580" y="120" width="20" height="20" as="geometry" />
        </mxCell>
        <mxCell id="K07xlU3QF2Z3pLZcyAiM-18" value="49" style="rounded=0;whiteSpace=wrap;html=1;align=center;fillColor=#e1d5e7;strokeColor=#9673a6;" parent="1" vertex="1">
          <mxGeometry x="-560" y="120" width="20" height="20" as="geometry" />
        </mxCell>
        <mxCell id="K07xlU3QF2Z3pLZcyAiM-19" value="50" style="rounded=0;whiteSpace=wrap;html=1;align=center;fillColor=#e1d5e7;strokeColor=#9673a6;" parent="1" vertex="1">
          <mxGeometry x="-540" y="120" width="20" height="20" as="geometry" />
        </mxCell>
        <mxCell id="K07xlU3QF2Z3pLZcyAiM-20" value="51" style="rounded=0;whiteSpace=wrap;html=1;align=center;fillColor=#e1d5e7;strokeColor=#9673a6;" parent="1" vertex="1">
          <mxGeometry x="-520" y="120" width="20" height="20" as="geometry" />
        </mxCell>
        <mxCell id="K07xlU3QF2Z3pLZcyAiM-21" value="52" style="rounded=0;whiteSpace=wrap;html=1;align=center;fillColor=#e1d5e7;strokeColor=#9673a6;" parent="1" vertex="1">
          <mxGeometry x="-500" y="120" width="20" height="20" as="geometry" />
        </mxCell>
        <mxCell id="K07xlU3QF2Z3pLZcyAiM-22" value="1" style="rounded=0;whiteSpace=wrap;html=1;align=center;fillColor=#e1d5e7;strokeColor=#9673a6;" parent="1" vertex="1">
          <mxGeometry x="-480" y="120" width="20" height="20" as="geometry" />
        </mxCell>
        <mxCell id="K07xlU3QF2Z3pLZcyAiM-23" value="NOVIEMBRE" style="rounded=0;whiteSpace=wrap;html=1;fillColor=#e1d5e7;strokeColor=#9673a6;fontSize=11;fontStyle=0" parent="1" vertex="1">
          <mxGeometry x="-650" y="100" width="80" height="20" as="geometry" />
        </mxCell>
        <mxCell id="K07xlU3QF2Z3pLZcyAiM-24" value="2024" style="rounded=0;whiteSpace=wrap;html=1;fillColor=#e1d5e7;strokeColor=#9673a6;fontStyle=1" parent="1" vertex="1">
          <mxGeometry x="-480" y="80" width="480" height="20" as="geometry" />
        </mxCell>
        <mxCell id="K07xlU3QF2Z3pLZcyAiM-25" value="2023" style="rounded=0;whiteSpace=wrap;html=1;fillColor=#e1d5e7;strokeColor=#9673a6;fontStyle=1" parent="1" vertex="1">
          <mxGeometry x="-650" y="80" width="170" height="20" as="geometry" />
        </mxCell>
        <mxCell id="K07xlU3QF2Z3pLZcyAiM-27" value="2" style="rounded=0;whiteSpace=wrap;html=1;align=center;fillColor=#e1d5e7;strokeColor=#9673a6;" parent="1" vertex="1">
          <mxGeometry x="-460" y="120" width="20" height="20" as="geometry" />
        </mxCell>
        <mxCell id="K07xlU3QF2Z3pLZcyAiM-28" value="3" style="rounded=0;whiteSpace=wrap;html=1;align=center;fillColor=#e1d5e7;strokeColor=#9673a6;" parent="1" vertex="1">
          <mxGeometry x="-440" y="120" width="20" height="20" as="geometry" />
        </mxCell>
        <mxCell id="K07xlU3QF2Z3pLZcyAiM-29" value="4" style="rounded=0;whiteSpace=wrap;html=1;align=center;fillColor=#e1d5e7;strokeColor=#9673a6;" parent="1" vertex="1">
          <mxGeometry x="-420" y="120" width="20" height="20" as="geometry" />
        </mxCell>
        <mxCell id="K07xlU3QF2Z3pLZcyAiM-30" value="5" style="rounded=0;whiteSpace=wrap;html=1;align=center;fillColor=#e1d5e7;strokeColor=#9673a6;" parent="1" vertex="1">
          <mxGeometry x="-400" y="120" width="20" height="20" as="geometry" />
        </mxCell>
        <mxCell id="K07xlU3QF2Z3pLZcyAiM-31" value="6" style="rounded=0;whiteSpace=wrap;html=1;align=center;fillColor=#e1d5e7;strokeColor=#9673a6;" parent="1" vertex="1">
          <mxGeometry x="-380" y="120" width="20" height="20" as="geometry" />
        </mxCell>
        <mxCell id="K07xlU3QF2Z3pLZcyAiM-32" value="7" style="rounded=0;whiteSpace=wrap;html=1;align=center;fillColor=#e1d5e7;strokeColor=#9673a6;" parent="1" vertex="1">
          <mxGeometry x="-360" y="120" width="20" height="20" as="geometry" />
        </mxCell>
        <mxCell id="K07xlU3QF2Z3pLZcyAiM-33" value="8" style="rounded=0;whiteSpace=wrap;html=1;align=center;fillColor=#e1d5e7;strokeColor=#9673a6;" parent="1" vertex="1">
          <mxGeometry x="-340" y="120" width="20" height="20" as="geometry" />
        </mxCell>
        <mxCell id="K07xlU3QF2Z3pLZcyAiM-34" value="9" style="rounded=0;whiteSpace=wrap;html=1;align=center;fillColor=#e1d5e7;strokeColor=#9673a6;" parent="1" vertex="1">
          <mxGeometry x="-320" y="120" width="20" height="20" as="geometry" />
        </mxCell>
        <mxCell id="K07xlU3QF2Z3pLZcyAiM-35" value="10" style="rounded=0;whiteSpace=wrap;html=1;align=center;fillColor=#e1d5e7;strokeColor=#9673a6;" parent="1" vertex="1">
          <mxGeometry x="-300" y="120" width="20" height="20" as="geometry" />
        </mxCell>
        <mxCell id="K07xlU3QF2Z3pLZcyAiM-36" value="11" style="rounded=0;whiteSpace=wrap;html=1;align=center;fillColor=#e1d5e7;strokeColor=#9673a6;" parent="1" vertex="1">
          <mxGeometry x="-280" y="120" width="20" height="20" as="geometry" />
        </mxCell>
        <mxCell id="K07xlU3QF2Z3pLZcyAiM-37" value="12" style="rounded=0;whiteSpace=wrap;html=1;align=center;fillColor=#e1d5e7;strokeColor=#9673a6;" parent="1" vertex="1">
          <mxGeometry x="-260" y="120" width="20" height="20" as="geometry" />
        </mxCell>
        <mxCell id="K07xlU3QF2Z3pLZcyAiM-38" value="13" style="rounded=0;whiteSpace=wrap;html=1;align=center;fillColor=#e1d5e7;strokeColor=#9673a6;" parent="1" vertex="1">
          <mxGeometry x="-240" y="120" width="20" height="20" as="geometry" />
        </mxCell>
        <mxCell id="K07xlU3QF2Z3pLZcyAiM-39" value="14" style="rounded=0;whiteSpace=wrap;html=1;align=center;fillColor=#e1d5e7;strokeColor=#9673a6;" parent="1" vertex="1">
          <mxGeometry x="-220" y="120" width="20" height="20" as="geometry" />
        </mxCell>
        <mxCell id="K07xlU3QF2Z3pLZcyAiM-40" value="15" style="rounded=0;whiteSpace=wrap;html=1;align=center;fillColor=#e1d5e7;strokeColor=#9673a6;" parent="1" vertex="1">
          <mxGeometry x="-200" y="120" width="20" height="20" as="geometry" />
        </mxCell>
        <mxCell id="K07xlU3QF2Z3pLZcyAiM-41" value="16" style="rounded=0;whiteSpace=wrap;html=1;align=center;fillColor=#e1d5e7;strokeColor=#9673a6;" parent="1" vertex="1">
          <mxGeometry x="-180" y="120" width="20" height="20" as="geometry" />
        </mxCell>
        <mxCell id="K07xlU3QF2Z3pLZcyAiM-44" value="17" style="rounded=0;whiteSpace=wrap;html=1;align=center;fillColor=#e1d5e7;strokeColor=#9673a6;" parent="1" vertex="1">
          <mxGeometry x="-160" y="120" width="20" height="20" as="geometry" />
        </mxCell>
        <mxCell id="K07xlU3QF2Z3pLZcyAiM-45" value="18" style="rounded=0;whiteSpace=wrap;html=1;align=center;fillColor=#e1d5e7;strokeColor=#9673a6;" parent="1" vertex="1">
          <mxGeometry x="-140" y="120" width="20" height="20" as="geometry" />
        </mxCell>
        <mxCell id="K07xlU3QF2Z3pLZcyAiM-46" value="19" style="rounded=0;whiteSpace=wrap;html=1;align=center;fillColor=#e1d5e7;strokeColor=#9673a6;" parent="1" vertex="1">
          <mxGeometry x="-120" y="120" width="20" height="20" as="geometry" />
        </mxCell>
        <mxCell id="K07xlU3QF2Z3pLZcyAiM-47" value="20" style="rounded=0;whiteSpace=wrap;html=1;align=center;fillColor=#e1d5e7;strokeColor=#9673a6;" parent="1" vertex="1">
          <mxGeometry x="-100" y="120" width="20" height="20" as="geometry" />
        </mxCell>
        <mxCell id="K07xlU3QF2Z3pLZcyAiM-48" value="21" style="rounded=0;whiteSpace=wrap;html=1;align=center;fillColor=#e1d5e7;strokeColor=#9673a6;" parent="1" vertex="1">
          <mxGeometry x="-80" y="120" width="20" height="20" as="geometry" />
        </mxCell>
        <mxCell id="K07xlU3QF2Z3pLZcyAiM-49" value="22" style="rounded=0;whiteSpace=wrap;html=1;align=center;fillColor=#e1d5e7;strokeColor=#9673a6;" parent="1" vertex="1">
          <mxGeometry x="-60" y="120" width="20" height="20" as="geometry" />
        </mxCell>
        <mxCell id="K07xlU3QF2Z3pLZcyAiM-50" value="23" style="rounded=0;whiteSpace=wrap;html=1;align=center;fillColor=#e1d5e7;strokeColor=#9673a6;" parent="1" vertex="1">
          <mxGeometry x="-40" y="120" width="20" height="20" as="geometry" />
        </mxCell>
        <mxCell id="K07xlU3QF2Z3pLZcyAiM-51" value="24" style="rounded=0;whiteSpace=wrap;html=1;align=center;fillColor=#e1d5e7;strokeColor=#9673a6;" parent="1" vertex="1">
          <mxGeometry x="-20" y="120" width="20" height="20" as="geometry" />
        </mxCell>
        <mxCell id="K07xlU3QF2Z3pLZcyAiM-52" value="47" style="rounded=0;whiteSpace=wrap;html=1;align=center;fillColor=#e1d5e7;strokeColor=#9673a6;" parent="1" vertex="1">
          <mxGeometry x="-600" y="120" width="20" height="20" as="geometry" />
        </mxCell>
        <mxCell id="K07xlU3QF2Z3pLZcyAiM-53" value="46" style="rounded=0;whiteSpace=wrap;html=1;align=center;fillColor=#e1d5e7;strokeColor=#9673a6;" parent="1" vertex="1">
          <mxGeometry x="-620" y="120" width="20" height="20" as="geometry" />
        </mxCell>
        <mxCell id="K07xlU3QF2Z3pLZcyAiM-54" value="45" style="rounded=0;whiteSpace=wrap;html=1;align=center;fillColor=#e1d5e7;strokeColor=#9673a6;" parent="1" vertex="1">
          <mxGeometry x="-640" y="120" width="20" height="20" as="geometry" />
        </mxCell>
        <mxCell id="K07xlU3QF2Z3pLZcyAiM-55" value="IDENTIFICADOR TAREA" style="rounded=0;whiteSpace=wrap;html=1;fillColor=#e1d5e7;strokeColor=#9673a6;" parent="1" vertex="1">
          <mxGeometry x="-820" y="80" width="170" height="60" as="geometry" />
        </mxCell>
        <mxCell id="K07xlU3QF2Z3pLZcyAiM-58" value="" style="rounded=0;whiteSpace=wrap;html=1;align=center;fillColor=#e1d5e7;strokeColor=#9673a6;" parent="1" vertex="1">
          <mxGeometry x="-650" y="120" width="10" height="20" as="geometry" />
        </mxCell>
        <mxCell id="K07xlU3QF2Z3pLZcyAiM-125" value="" style="rounded=0;whiteSpace=wrap;html=1;fillColor=#dae8fc;strokeColor=#6c8ebf;" parent="1" vertex="1">
          <mxGeometry x="-650" y="140" width="650" height="20" as="geometry" />
        </mxCell>
        <mxCell id="K07xlU3QF2Z3pLZcyAiM-126" value="" style="rounded=0;whiteSpace=wrap;html=1;fillColor=#dae8fc;strokeColor=#6c8ebf;glass=0;shadow=0;direction=east;fillStyle=auto;opacity=75;" parent="1" vertex="1">
          <mxGeometry x="-650" y="160" width="80" height="20" as="geometry" />
        </mxCell>
        <mxCell id="K07xlU3QF2Z3pLZcyAiM-127" value="" style="rounded=0;whiteSpace=wrap;html=1;fillColor=#dae8fc;strokeColor=#6c8ebf;glass=0;shadow=0;direction=east;fillStyle=auto;opacity=75;" parent="1" vertex="1">
          <mxGeometry x="-570" y="240" width="450" height="20" as="geometry" />
        </mxCell>
        <mxCell id="K07xlU3QF2Z3pLZcyAiM-128" value="" style="rounded=0;whiteSpace=wrap;html=1;fillColor=#dae8fc;strokeColor=#6c8ebf;glass=0;shadow=0;direction=east;fillStyle=auto;opacity=75;" parent="1" vertex="1">
          <mxGeometry x="-120" y="380" width="120" height="20" as="geometry" />
        </mxCell>
        <mxCell id="K07xlU3QF2Z3pLZcyAiM-129" value="" style="rounded=0;whiteSpace=wrap;html=1;fillColor=#f5f5f5;strokeColor=#666666;glass=0;shadow=0;direction=east;fillStyle=auto;opacity=75;fontColor=#333333;" parent="1" vertex="1">
          <mxGeometry x="-650" y="180" width="10" height="20" as="geometry" />
        </mxCell>
        <mxCell id="K07xlU3QF2Z3pLZcyAiM-130" value="" style="rounded=0;whiteSpace=wrap;html=1;fillColor=#f5f5f5;strokeColor=#666666;glass=0;shadow=0;direction=east;fillStyle=auto;opacity=75;fontColor=#333333;" parent="1" vertex="1">
          <mxGeometry x="-640" y="200" width="30" height="20" as="geometry" />
        </mxCell>
        <mxCell id="K07xlU3QF2Z3pLZcyAiM-131" value="" style="rounded=0;whiteSpace=wrap;html=1;fillColor=#f5f5f5;strokeColor=#666666;glass=0;shadow=0;direction=east;fillStyle=auto;opacity=75;fontColor=#333333;" parent="1" vertex="1">
          <mxGeometry x="-610" y="220" width="40" height="20" as="geometry" />
        </mxCell>
        <mxCell id="K07xlU3QF2Z3pLZcyAiM-132" value="" style="rounded=0;whiteSpace=wrap;html=1;fillColor=#f5f5f5;strokeColor=#666666;glass=0;shadow=0;direction=east;fillStyle=auto;opacity=75;fontColor=#333333;" parent="1" vertex="1">
          <mxGeometry x="-570" y="260" width="450" height="20" as="geometry" />
        </mxCell>
        <mxCell id="K07xlU3QF2Z3pLZcyAiM-133" value="" style="rounded=0;whiteSpace=wrap;html=1;fillColor=#f5f5f5;strokeColor=#666666;glass=0;shadow=0;direction=east;fillStyle=auto;opacity=75;fontColor=#333333;" parent="1" vertex="1">
          <mxGeometry x="-570" y="280" width="130" height="20" as="geometry" />
        </mxCell>
        <mxCell id="K07xlU3QF2Z3pLZcyAiM-134" value="" style="rounded=0;whiteSpace=wrap;html=1;fillColor=#f5f5f5;strokeColor=#666666;glass=0;shadow=0;direction=east;fillStyle=auto;opacity=75;fontColor=#333333;" parent="1" vertex="1">
          <mxGeometry x="-460" y="300" width="230" height="20" as="geometry" />
        </mxCell>
        <mxCell id="K07xlU3QF2Z3pLZcyAiM-135" value="" style="rounded=0;whiteSpace=wrap;html=1;fillColor=#f5f5f5;strokeColor=#666666;glass=0;shadow=0;direction=east;fillStyle=auto;opacity=75;fontColor=#333333;" parent="1" vertex="1">
          <mxGeometry x="-230" y="320" width="30" height="20" as="geometry" />
        </mxCell>
        <mxCell id="K07xlU3QF2Z3pLZcyAiM-136" value="" style="rounded=0;whiteSpace=wrap;html=1;fillColor=#f5f5f5;strokeColor=#666666;glass=0;shadow=0;direction=east;fillStyle=auto;opacity=75;fontColor=#333333;" parent="1" vertex="1">
          <mxGeometry x="-220" y="340" width="100" height="20" as="geometry" />
        </mxCell>
        <mxCell id="K07xlU3QF2Z3pLZcyAiM-137" value="" style="rounded=0;whiteSpace=wrap;html=1;fillColor=#f5f5f5;strokeColor=#666666;glass=0;shadow=0;direction=east;fillStyle=auto;opacity=75;fontColor=#333333;" parent="1" vertex="1">
          <mxGeometry x="-140" y="360" width="20" height="20" as="geometry" />
        </mxCell>
        <mxCell id="K07xlU3QF2Z3pLZcyAiM-138" value="" style="rounded=0;whiteSpace=wrap;html=1;fillColor=#f5f5f5;strokeColor=#666666;glass=0;shadow=0;direction=east;fillStyle=auto;opacity=75;fontColor=#333333;" parent="1" vertex="1">
          <mxGeometry x="-260" y="360" width="30" height="20" as="geometry" />
        </mxCell>
        <mxCell id="K07xlU3QF2Z3pLZcyAiM-139" value="" style="rounded=0;whiteSpace=wrap;html=1;fillColor=#f5f5f5;strokeColor=#666666;glass=0;shadow=0;direction=east;fillStyle=auto;opacity=75;fontColor=#333333;" parent="1" vertex="1">
          <mxGeometry x="-120" y="400" width="10" height="20" as="geometry" />
        </mxCell>
        <mxCell id="K07xlU3QF2Z3pLZcyAiM-140" value="" style="rounded=0;whiteSpace=wrap;html=1;fillColor=#f5f5f5;strokeColor=#666666;glass=0;shadow=0;direction=east;fillStyle=auto;opacity=75;fontColor=#333333;" parent="1" vertex="1">
          <mxGeometry x="-110" y="420" width="20" height="20" as="geometry" />
        </mxCell>
        <mxCell id="K07xlU3QF2Z3pLZcyAiM-141" value="" style="rounded=0;whiteSpace=wrap;html=1;fillColor=#f5f5f5;strokeColor=#666666;glass=0;shadow=0;direction=east;fillStyle=auto;opacity=75;fontColor=#333333;" parent="1" vertex="1">
          <mxGeometry x="-90" y="440" width="10" height="20" as="geometry" />
        </mxCell>
        <mxCell id="K07xlU3QF2Z3pLZcyAiM-142" value="" style="rounded=0;whiteSpace=wrap;html=1;fillColor=#f5f5f5;strokeColor=#666666;glass=0;shadow=0;direction=east;fillStyle=auto;opacity=75;fontColor=#333333;" parent="1" vertex="1">
          <mxGeometry x="-80" y="460" width="10" height="20" as="geometry" />
        </mxCell>
        <mxCell id="K07xlU3QF2Z3pLZcyAiM-143" value="" style="rounded=0;whiteSpace=wrap;html=1;fillColor=#f5f5f5;strokeColor=#666666;glass=0;shadow=0;direction=east;fillStyle=auto;opacity=75;fontColor=#333333;" parent="1" vertex="1">
          <mxGeometry x="-70" y="480" width="10" height="20" as="geometry" />
        </mxCell>
        <mxCell id="K07xlU3QF2Z3pLZcyAiM-145" value="" style="rounded=0;whiteSpace=wrap;html=1;fillColor=#f5f5f5;strokeColor=#666666;glass=0;shadow=0;direction=east;fillStyle=auto;opacity=75;fontColor=#333333;" parent="1" vertex="1">
          <mxGeometry x="-60" y="500" width="10" height="20" as="geometry" />
        </mxCell>
        <mxCell id="K07xlU3QF2Z3pLZcyAiM-147" value="" style="rounded=0;whiteSpace=wrap;html=1;fillColor=#f5f5f5;strokeColor=#666666;glass=0;shadow=0;direction=east;fillStyle=auto;opacity=75;fontColor=#333333;" parent="1" vertex="1">
          <mxGeometry x="-50" y="520" width="10" height="20" as="geometry" />
        </mxCell>
        <mxCell id="K07xlU3QF2Z3pLZcyAiM-148" value="" style="rounded=0;whiteSpace=wrap;html=1;fillColor=#f5f5f5;strokeColor=#666666;glass=0;shadow=0;direction=east;fillStyle=auto;opacity=75;fontColor=#333333;" parent="1" vertex="1">
          <mxGeometry x="-40" y="540" width="10" height="20" as="geometry" />
        </mxCell>
        <mxCell id="K07xlU3QF2Z3pLZcyAiM-149" value="" style="rounded=0;whiteSpace=wrap;html=1;fillColor=#f5f5f5;strokeColor=#666666;glass=0;shadow=0;direction=east;fillStyle=auto;opacity=75;fontColor=#333333;" parent="1" vertex="1">
          <mxGeometry x="-30" y="560" width="10" height="20" as="geometry" />
        </mxCell>
        <mxCell id="K07xlU3QF2Z3pLZcyAiM-150" value="" style="rounded=0;whiteSpace=wrap;html=1;fillColor=#f5f5f5;strokeColor=#666666;glass=0;shadow=0;direction=east;fillStyle=auto;opacity=75;fontColor=#333333;" parent="1" vertex="1">
          <mxGeometry x="-20" y="580" width="10" height="20" as="geometry" />
        </mxCell>
        <mxCell id="K07xlU3QF2Z3pLZcyAiM-151" value="" style="rounded=0;whiteSpace=wrap;html=1;fillColor=#f5f5f5;strokeColor=#666666;glass=0;shadow=0;direction=east;fillStyle=auto;opacity=75;fontColor=#333333;" parent="1" vertex="1">
          <mxGeometry x="-10" y="600" width="10" height="20" as="geometry" />
        </mxCell>
        <mxCell id="K07xlU3QF2Z3pLZcyAiM-152" value="" style="rounded=0;whiteSpace=wrap;html=1;fillColor=#f5f5f5;strokeColor=#666666;glass=0;shadow=0;direction=east;fillStyle=auto;opacity=75;fontColor=#333333;" parent="1" vertex="1">
          <mxGeometry x="-10" y="620" width="10" height="20" as="geometry" />
        </mxCell>
      </root>
    </mxGraphModel>
  </diagram>
</mxfile>
